<svg width="113" height="156" viewBox="0 0 113 156" fill="none" xmlns="http://www.w3.org/2000/svg">
<path fill-rule="evenodd" clip-rule="evenodd" d="M29.3756 104.282C31.0452 105.312 33.2796 106.33 35.8212 107.338C35.9703 107.397 36.1204 107.456 36.2715 107.515C37.0548 106.167 37.8513 104.799 38.6591 103.413C38.6908 103.359 38.7224 103.305 38.7541 103.25C40.5908 100.1 42.4856 96.8576 44.4162 93.5542C44.4525 93.4921 44.4888 93.4299 44.5251 93.3678C47.669 91.4855 51.5629 89.605 55.4774 87.7457C56.1229 87.4391 56.8245 87.5364 57.2534 88.1081C66.4018 100.303 165.345 231.396 73.5831 73.9654C70.8014 69.1932 67.3033 64.8688 63.2194 61.1247C78.8944 33.6519 92.2679 8.45716 91.4754 1.61148C91.3716 0.714887 90.3738 0.793992 89.9155 1.57155L57.5147 56.5417C56.4877 55.8209 55.434 55.1324 54.3551 54.4775C46.3641 49.6276 37.2461 46.7809 27.831 46.1967C18.9332 45.6447 10.0373 47.1299 1.86653 50.5221C1.08596 50.8462 0.75215 51.762 1.11888 52.5234L4.21888 58.9602C4.57113 59.6915 5.44042 60.0076 6.19148 59.6995C12.8032 56.9874 19.9902 55.8026 27.1786 56.2487C34.8556 56.725 42.2905 59.0462 48.8063 63.0008C50.0168 63.7356 51.1885 64.5223 52.3182 65.358L35.6047 93.7136C31.294 95.5603 27.8916 97.4144 26.7029 99.2485C26.2529 99.9428 25.5489 100.574 24.756 100.81C22.8716 101.371 27.712 103.255 29.3756 104.282ZM46.861 89.3703C56.8614 85.6832 66.3636 82.1146 64.4848 78.8912C62.6661 75.771 60.4717 72.8855 57.9566 70.2906C54.2623 76.6893 50.5154 83.1146 46.861 89.3703Z" fill="#FF4A3F"/>
<path d="M6.52479 149.472C6.13122 150.25 6.48161 151.2 7.29597 151.513C15.55 154.677 24.4649 155.927 33.3191 155.151C42.7124 154.328 51.7392 151.251 59.5774 146.2C67.4157 141.148 73.8165 134.284 78.1971 126.231C82.1585 118.948 45.2327 111.339 38.7541 103.25L38.6591 103.413C37.8513 104.799 37.0548 106.167 36.2715 107.515C48.5879 112.324 71.3908 117.052 68.9505 121.538C65.3786 128.105 60.1594 133.702 53.7681 137.821C47.3768 141.94 28.2652 145.496 20.6058 146.167C17.9458 146.4 23.4227 129.622 36.2715 107.515C36.1204 107.456 35.9703 107.397 35.8212 107.338C33.2796 106.33 31.0452 105.312 29.3756 104.282L6.52479 149.472Z" fill="#FF4A3F"/>
</svg>
